<svg xmlns="http://www.w3.org/2000/svg" version="1.1" width="12.5in" height="10.5in" viewBox = " 0 0 1125 945" >
<!-- Front--> 
<g transform="translate(22.5, 22.5) " > 
<polygon style="stroke:#000000; fill:none; stroke-width:0.9" points="0, 0 38.25000000000001, 0 38.25000000000001, 10.62 76.50000000000001, 10.62 76.50000000000001, 0 103.50000000000001, 0 103.50000000000001, 10.62 141.75000000000003, 10.62 141.75000000000003, 0 180, 0 180, 38.25000000000001 169.38, 38.25000000000001 169.38, 76.50000000000001 180, 76.50000000000001 180, 103.50000000000001 169.38, 103.50000000000001 169.38, 141.75000000000003 180, 141.75000000000003 180.00000000000003, 180 141.75000000000003, 180 141.75000000000003, 169.38 103.50000000000001, 169.38 103.50000000000001, 180 76.50000000000001, 180 76.50000000000001, 169.38 38.25000000000001, 169.38 38.25000000000001, 180 0, 180.00000000000003 0, 141.75000000000003 10.62, 141.75000000000003 10.62, 103.50000000000001 0, 103.50000000000001 0, 76.50000000000001 10.62, 76.50000000000001 10.62, 38.25000000000001 0, 38.25000000000001 "/> 
</g>
<!-- Back--> 
<g transform="translate(202.5, 22.5) " > 
<polygon style="stroke:#000000; fill:none; stroke-width:0.9" points="0, 0 38.25000000000001, 0 38.25000000000001, 10.62 76.50000000000001, 10.62 76.50000000000001, 0 103.50000000000001, 0 103.50000000000001, 10.62 141.75000000000003, 10.62 141.75000000000003, 0 180, 0 180, 38.25000000000001 169.38, 38.25000000000001 169.38, 76.50000000000001 180, 76.50000000000001 180, 103.50000000000001 169.38, 103.50000000000001 169.38, 141.75000000000003 180, 141.75000000000003 180.00000000000003, 180 141.75000000000003, 180 141.75000000000003, 169.38 103.50000000000001, 169.38 103.50000000000001, 180 76.50000000000001, 180 76.50000000000001, 169.38 38.25000000000001, 169.38 38.25000000000001, 180 0, 180.00000000000003 0, 141.75000000000003 10.62, 141.75000000000003 10.62, 103.50000000000001 0, 103.50000000000001 0, 76.50000000000001 10.62, 76.50000000000001 10.62, 38.25000000000001 0, 38.25000000000001 "/> 
</g>
<!-- Left--> 
<g transform="translate(382.5, 22.5) " > 
<polygon style="stroke:#000000; fill:none; stroke-width:0.9" points="10.62, 0 38.25000000000001, 0 38.25000000000001, 10.62 76.50000000000001, 10.62 76.50000000000001, 0 103.50000000000001, 0 103.50000000000001, 10.62 130.5, 10.62 130.5, 0 157.5, 0 157.5, 10.62 184.5, 10.62 184.5, 0 211.5, 0 211.5, 10.62 238.5, 10.62 238.5, 0 265.5, 0 265.5, 10.62 292.5, 10.62 292.5, 0 319.5, 0 319.5, 10.62 346.5, 10.62 346.5, 0 373.5, 0 373.5, 10.62 400.5, 10.62 400.5, 0 427.5, 0 427.5, 10.62 454.5, 10.62 454.5, 0 481.5, 0 481.5, 10.62 508.5, 10.62 508.5, 0 535.5, 0 535.5, 10.62 562.5, 10.62 562.5, 0 589.5, 0 589.5, 10.62 616.5, 10.62 616.5, 0 643.5, 0 643.5, 10.62 681.75, 10.62 681.75, 0 709.38, 0 709.38, 38.25000000000001 720, 38.25000000000001 720, 76.50000000000001 709.38, 76.50000000000001 709.38, 103.50000000000001 720, 103.50000000000001 720, 141.75000000000003 709.38, 141.75000000000003 709.38, 180 681.75, 180 681.75, 169.38 643.5, 169.38 643.5, 180 616.5, 180 616.5, 169.38 589.5, 169.38 589.5, 180 562.5, 180 562.5, 169.38 535.5, 169.38 535.5, 180 508.5, 180 508.5, 169.38 481.5, 169.38 481.5, 180 454.5, 180 454.5, 169.38 427.5, 169.38 427.5, 180 400.5, 180 400.5, 169.38 373.5, 169.38 373.5, 180 346.5, 180 346.5, 169.38 319.5, 169.38 319.5, 180 292.5, 180 292.5, 169.38 265.5, 169.38 265.5, 180 238.5, 180 238.5, 169.38 211.5, 169.38 211.5, 180 184.5, 180 184.5, 169.38 157.5, 169.38 157.5, 180 130.5, 180 130.5, 169.38 103.50000000000001, 169.38 103.50000000000001, 180 76.50000000000001, 180 76.50000000000001, 169.38 38.25000000000001, 169.38 38.25000000000001, 180 10.62, 180.00000000000003 10.62, 141.75000000000003 0, 141.75000000000003 0, 103.50000000000001 10.62, 103.50000000000001 10.62, 76.50000000000001 0, 76.50000000000001 0, 38.25000000000001 10.62, 38.25000000000001 "/> 
</g>
<!-- Right--> 
<g transform="translate(382.5, 202.5) " > 
<polygon style="stroke:#000000; fill:none; stroke-width:0.9" points="10.62, 0 38.25000000000001, 0 38.25000000000001, 10.62 76.50000000000001, 10.62 76.50000000000001, 0 103.50000000000001, 0 103.50000000000001, 10.62 130.5, 10.62 130.5, 0 157.5, 0 157.5, 10.62 184.5, 10.62 184.5, 0 211.5, 0 211.5, 10.62 238.5, 10.62 238.5, 0 265.5, 0 265.5, 10.62 292.5, 10.62 292.5, 0 319.5, 0 319.5, 10.62 346.5, 10.62 346.5, 0 373.5, 0 373.5, 10.62 400.5, 10.62 400.5, 0 427.5, 0 427.5, 10.62 454.5, 10.62 454.5, 0 481.5, 0 481.5, 10.62 508.5, 10.62 508.5, 0 535.5, 0 535.5, 10.62 562.5, 10.62 562.5, 0 589.5, 0 589.5, 10.62 616.5, 10.62 616.5, 0 643.5, 0 643.5, 10.62 681.75, 10.62 681.75, 0 709.38, 0 709.38, 38.25000000000001 720, 38.25000000000001 720, 76.50000000000001 709.38, 76.50000000000001 709.38, 103.50000000000001 720, 103.50000000000001 720, 141.75000000000003 709.38, 141.75000000000003 709.38, 180 681.75, 180 681.75, 169.38 643.5, 169.38 643.5, 180 616.5, 180 616.5, 169.38 589.5, 169.38 589.5, 180 562.5, 180 562.5, 169.38 535.5, 169.38 535.5, 180 508.5, 180 508.5, 169.38 481.5, 169.38 481.5, 180 454.5, 180 454.5, 169.38 427.5, 169.38 427.5, 180 400.5, 180 400.5, 169.38 373.5, 169.38 373.5, 180 346.5, 180 346.5, 169.38 319.5, 169.38 319.5, 180 292.5, 180 292.5, 169.38 265.5, 169.38 265.5, 180 238.5, 180 238.5, 169.38 211.5, 169.38 211.5, 180 184.5, 180 184.5, 169.38 157.5, 169.38 157.5, 180 130.5, 180 130.5, 169.38 103.50000000000001, 169.38 103.50000000000001, 180 76.50000000000001, 180 76.50000000000001, 169.38 38.25000000000001, 169.38 38.25000000000001, 180 10.62, 180.00000000000003 10.62, 141.75000000000003 0, 141.75000000000003 0, 103.50000000000001 10.62, 103.50000000000001 10.62, 76.50000000000001 0, 76.50000000000001 0, 38.25000000000001 10.62, 38.25000000000001 "/> 
</g>
<!-- Top--> 
<g transform="translate(22.5, 202.5) " > 
<polygon style="stroke:#000000; fill:none; stroke-width:0.9" points="10.62, 10.62 38.25000000000001, 10.62 38.25000000000001, 0 76.50000000000001, 0 76.50000000000001, 10.62 103.50000000000001, 10.62 103.50000000000001, 0 141.75000000000003, 0 141.75000000000003, 10.62 169.38, 10.62 169.38, 38.25000000000001 180, 38.25000000000001 180, 76.50000000000001 169.38, 76.50000000000001 169.38, 103.50000000000001 180, 103.50000000000001 180, 130.5 169.38, 130.5 169.38, 157.5 180, 157.5 180, 184.5 169.38, 184.5 169.38, 211.5 180, 211.5 180, 238.5 169.38, 238.5 169.38, 265.5 180, 265.5 180, 292.5 169.38, 292.5 169.38, 319.5 180, 319.5 180, 346.5 169.38, 346.5 169.38, 373.5 180, 373.5 180, 400.5 169.38, 400.5 169.38, 427.5 180, 427.5 180, 454.5 169.38, 454.5 169.38, 481.5 180, 481.5 180, 508.5 169.38, 508.5 169.38, 535.5 180, 535.5 180, 562.5 169.38, 562.5 169.38, 589.5 180, 589.5 180, 616.5 169.38, 616.5 169.38, 643.5 180, 643.5 180, 681.75 169.38, 681.75 169.38000000000002, 709.38 141.75000000000003, 709.38 141.75000000000003, 720 103.50000000000001, 720 103.50000000000001, 709.38 76.50000000000001, 709.38 76.50000000000001, 720 38.25000000000001, 720 38.25000000000001, 709.38 10.62, 709.38 10.62, 681.75 0, 681.75 0, 643.5 10.62, 643.5 10.62, 616.5 0, 616.5 0, 589.5 10.62, 589.5 10.62, 562.5 0, 562.5 0, 535.5 10.62, 535.5 10.62, 508.5 0, 508.5 0, 481.5 10.62, 481.5 10.62, 454.5 0, 454.5 0, 427.5 10.62, 427.5 10.62, 400.5 0, 400.5 0, 373.5 10.62, 373.5 10.62, 346.5 0, 346.5 0, 319.5 10.62, 319.5 10.62, 292.5 0, 292.5 0, 265.5 10.62, 265.5 10.62, 238.5 0, 238.5 0, 211.5 10.62, 211.5 10.62, 184.5 0, 184.5 0, 157.5 10.62, 157.5 10.62, 130.5 0, 130.5 0, 103.50000000000001 10.62, 103.50000000000001 10.62, 76.50000000000001 0, 76.50000000000001 0, 38.25000000000001 10.62, 38.25000000000001 "/> 
</g>
<!-- Bottom--> 
<g transform="translate(202.5, 202.5) " > 
<polygon style="stroke:#000000; fill:none; stroke-width:0.9" points="10.62, 10.62 38.25000000000001, 10.62 38.25000000000001, 0 76.50000000000001, 0 76.50000000000001, 10.62 103.50000000000001, 10.62 103.50000000000001, 0 141.75000000000003, 0 141.75000000000003, 10.62 169.38, 10.62 169.38, 38.25000000000001 180, 38.25000000000001 180, 76.50000000000001 169.38, 76.50000000000001 169.38, 103.50000000000001 180, 103.50000000000001 180, 130.5 169.38, 130.5 169.38, 157.5 180, 157.5 180, 184.5 169.38, 184.5 169.38, 211.5 180, 211.5 180, 238.5 169.38, 238.5 169.38, 265.5 180, 265.5 180, 292.5 169.38, 292.5 169.38, 319.5 180, 319.5 180, 346.5 169.38, 346.5 169.38, 373.5 180, 373.5 180, 400.5 169.38, 400.5 169.38, 427.5 180, 427.5 180, 454.5 169.38, 454.5 169.38, 481.5 180, 481.5 180, 508.5 169.38, 508.5 169.38, 535.5 180, 535.5 180, 562.5 169.38, 562.5 169.38, 589.5 180, 589.5 180, 616.5 169.38, 616.5 169.38, 643.5 180, 643.5 180, 681.75 169.38, 681.75 169.38000000000002, 709.38 141.75000000000003, 709.38 141.75000000000003, 720 103.50000000000001, 720 103.50000000000001, 709.38 76.50000000000001, 709.38 76.50000000000001, 720 38.25000000000001, 720 38.25000000000001, 709.38 10.62, 709.38 10.62, 681.75 0, 681.75 0, 643.5 10.62, 643.5 10.62, 616.5 0, 616.5 0, 589.5 10.62, 589.5 10.62, 562.5 0, 562.5 0, 535.5 10.62, 535.5 10.62, 508.5 0, 508.5 0, 481.5 10.62, 481.5 10.62, 454.5 0, 454.5 0, 427.5 10.62, 427.5 10.62, 400.5 0, 400.5 0, 373.5 10.62, 373.5 10.62, 346.5 0, 346.5 0, 319.5 10.62, 319.5 10.62, 292.5 0, 292.5 0, 265.5 10.62, 265.5 10.62, 238.5 0, 238.5 0, 211.5 10.62, 211.5 10.62, 184.5 0, 184.5 0, 157.5 10.62, 157.5 10.62, 130.5 0, 130.5 0, 103.50000000000001 10.62, 103.50000000000001 10.62, 76.50000000000001 0, 76.50000000000001 0, 38.25000000000001 10.62, 38.25000000000001 "/> 
</g></svg>