<?xml version="1.0" encoding="utf-8"?>
<!-- Generator: Adobe Illustrator 22.0.1, SVG Export Plug-In . SVG Version: 6.00 Build 0)  -->
<svg version="1.1" xmlns="http://www.w3.org/2000/svg" xmlns:xlink="http://www.w3.org/1999/xlink" x="0px" y="0px"
	 viewBox="0 0 1728 1296" style="enable-background:new 0 0 1728 1296;" xml:space="preserve">
<style type="text/css">
	.st0{display:none;}
	.st1{display:inline;}
	.st2{fill:none;stroke:#FF0000;stroke-width:7.200000e-02;}
</style>
<g id="Layer_1" class="st0">
	<g transform="translate(22.5, 22.5) " class="st1">
		<polygon class="st2" points="55.7,37.6 86.3,37.6 86.3,46.1 116.9,46.1 116.9,37.6 138.5,37.6 138.5,46.1 169.1,46.1 169.1,37.6 
			199.7,37.6 199.7,68.2 191.3,68.2 191.3,98.8 199.7,98.8 199.7,120.4 191.3,120.4 191.3,151 199.7,151 199.7,181.6 169.1,181.6 
			169.1,173.1 138.5,173.1 138.5,181.6 116.9,181.6 116.9,173.1 86.3,173.1 86.3,181.6 55.7,181.6 55.7,151 64.2,151 64.2,120.4 
			55.7,120.4 55.7,98.8 64.2,98.8 64.2,68.2 55.7,68.2 		"/>
	</g>
	<g transform="translate(202.5, 22.5) " class="st1">
		<polygon class="st2" points="19.7,37.6 50.3,37.6 50.3,46.1 80.9,46.1 80.9,37.6 102.5,37.6 102.5,46.1 133.1,46.1 133.1,37.6 
			163.7,37.6 163.7,68.2 155.3,68.2 155.3,98.8 163.7,98.8 163.7,120.4 155.3,120.4 155.3,151 163.7,151 163.7,181.6 133.1,181.6 
			133.1,173.1 102.5,173.1 102.5,181.6 80.9,181.6 80.9,173.1 50.3,173.1 50.3,181.6 19.7,181.6 19.7,151 28.2,151 28.2,120.4 
			19.7,120.4 19.7,98.8 28.2,98.8 28.2,68.2 19.7,68.2 		"/>
	</g>
	<g transform="translate(382.5, 22.5) " class="st1">
		<polygon class="st2" points="-7.8,37.6 14.3,37.6 14.3,46.1 44.9,46.1 44.9,37.6 66.5,37.6 66.5,46.1 88.1,46.1 88.1,37.6 
			109.7,37.6 109.7,46.1 131.3,46.1 131.3,37.6 152.9,37.6 152.9,46.1 174.5,46.1 174.5,37.6 196.1,37.6 196.1,46.1 217.7,46.1 
			217.7,37.6 239.3,37.6 239.3,46.1 260.9,46.1 260.9,37.6 282.5,37.6 282.5,46.1 304.1,46.1 304.1,37.6 325.7,37.6 325.7,46.1 
			347.3,46.1 347.3,37.6 368.9,37.6 368.9,46.1 390.5,46.1 390.5,37.6 412.1,37.6 412.1,46.1 433.7,46.1 433.7,37.6 455.3,37.6 
			455.3,46.1 476.9,46.1 476.9,37.6 498.5,37.6 498.5,46.1 529.1,46.1 529.1,37.6 551.3,37.6 551.3,68.2 559.7,68.2 559.7,98.8 
			551.3,98.8 551.3,120.4 559.7,120.4 559.7,151 551.3,151 551.3,181.6 529.1,181.6 529.1,173.1 498.5,173.1 498.5,181.6 
			476.9,181.6 476.9,173.1 455.3,173.1 455.3,181.6 433.7,181.6 433.7,173.1 412.1,173.1 412.1,181.6 390.5,181.6 390.5,173.1 
			368.9,173.1 368.9,181.6 347.3,181.6 347.3,173.1 325.7,173.1 325.7,181.6 304.1,181.6 304.1,173.1 282.5,173.1 282.5,181.6 
			260.9,181.6 260.9,173.1 239.3,173.1 239.3,181.6 217.7,181.6 217.7,173.1 196.1,173.1 196.1,181.6 174.5,181.6 174.5,173.1 
			152.9,173.1 152.9,181.6 131.3,181.6 131.3,173.1 109.7,173.1 109.7,181.6 88.1,181.6 88.1,173.1 66.5,173.1 66.5,181.6 
			44.9,181.6 44.9,173.1 14.3,173.1 14.3,181.6 -7.8,181.6 -7.8,151 -16.3,151 -16.3,120.4 -7.8,120.4 -7.8,98.8 -16.3,98.8 
			-16.3,68.2 -7.8,68.2 		"/>
	</g>
	<g transform="translate(382.5, 202.5) " class="st1">
		<polygon class="st2" points="-7.8,1.6 14.3,1.6 14.3,10.1 44.9,10.1 44.9,1.6 66.5,1.6 66.5,10.1 88.1,10.1 88.1,1.6 109.7,1.6 
			109.7,10.1 131.3,10.1 131.3,1.6 152.9,1.6 152.9,10.1 174.5,10.1 174.5,1.6 196.1,1.6 196.1,10.1 217.7,10.1 217.7,1.6 
			239.3,1.6 239.3,10.1 260.9,10.1 260.9,1.6 282.5,1.6 282.5,10.1 304.1,10.1 304.1,1.6 325.7,1.6 325.7,10.1 347.3,10.1 
			347.3,1.6 368.9,1.6 368.9,10.1 390.5,10.1 390.5,1.6 412.1,1.6 412.1,10.1 433.7,10.1 433.7,1.6 455.3,1.6 455.3,10.1 
			476.9,10.1 476.9,1.6 498.5,1.6 498.5,10.1 529.1,10.1 529.1,1.6 551.3,1.6 551.3,32.2 559.7,32.2 559.7,62.8 551.3,62.8 
			551.3,84.4 559.7,84.4 559.7,115 551.3,115 551.3,145.6 529.1,145.6 529.1,137.1 498.5,137.1 498.5,145.6 476.9,145.6 
			476.9,137.1 455.3,137.1 455.3,145.6 433.7,145.6 433.7,137.1 412.1,137.1 412.1,145.6 390.5,145.6 390.5,137.1 368.9,137.1 
			368.9,145.6 347.3,145.6 347.3,137.1 325.7,137.1 325.7,145.6 304.1,145.6 304.1,137.1 282.5,137.1 282.5,145.6 260.9,145.6 
			260.9,137.1 239.3,137.1 239.3,145.6 217.7,145.6 217.7,137.1 196.1,137.1 196.1,145.6 174.5,145.6 174.5,137.1 152.9,137.1 
			152.9,145.6 131.3,145.6 131.3,137.1 109.7,137.1 109.7,145.6 88.1,145.6 88.1,137.1 66.5,137.1 66.5,145.6 44.9,145.6 
			44.9,137.1 14.3,137.1 14.3,145.6 -7.8,145.6 -7.8,115 -16.3,115 -16.3,84.4 -7.8,84.4 -7.8,62.8 -16.3,62.8 -16.3,32.2 
			-7.8,32.2 		"/>
	</g>
	<g transform="translate(22.5, 202.5) " class="st1">
		<polygon class="st2" points="64.2,10.1 86.3,10.1 86.3,1.6 116.9,1.6 116.9,10.1 138.5,10.1 138.5,1.6 169.1,1.6 169.1,10.1 
			191.3,10.1 191.3,32.2 199.7,32.2 199.7,62.8 191.3,62.8 191.3,84.4 199.7,84.4 199.7,106 191.3,106 191.3,127.6 199.7,127.6 
			199.7,149.2 191.3,149.2 191.3,170.8 199.7,170.8 199.7,192.4 191.3,192.4 191.3,214 199.7,214 199.7,235.6 191.3,235.6 
			191.3,257.2 199.7,257.2 199.7,278.8 191.3,278.8 191.3,300.4 199.7,300.4 199.7,322 191.3,322 191.3,343.6 199.7,343.6 
			199.7,365.2 191.3,365.2 191.3,386.8 199.7,386.8 199.7,408.4 191.3,408.4 191.3,430 199.7,430 199.7,451.6 191.3,451.6 
			191.3,473.2 199.7,473.2 199.7,494.8 191.3,494.8 191.3,516.4 199.7,516.4 199.7,547 191.3,547 191.3,569.1 169.1,569.1 
			169.1,577.6 138.5,577.6 138.5,569.1 116.9,569.1 116.9,577.6 86.3,577.6 86.3,569.1 64.2,569.1 64.2,547 55.7,547 55.7,516.4 
			64.2,516.4 64.2,494.8 55.7,494.8 55.7,473.2 64.2,473.2 64.2,451.6 55.7,451.6 55.7,430 64.2,430 64.2,408.4 55.7,408.4 
			55.7,386.8 64.2,386.8 64.2,365.2 55.7,365.2 55.7,343.6 64.2,343.6 64.2,322 55.7,322 55.7,300.4 64.2,300.4 64.2,278.8 
			55.7,278.8 55.7,257.2 64.2,257.2 64.2,235.6 55.7,235.6 55.7,214 64.2,214 64.2,192.4 55.7,192.4 55.7,170.8 64.2,170.8 
			64.2,149.2 55.7,149.2 55.7,127.6 64.2,127.6 64.2,106 55.7,106 55.7,84.4 64.2,84.4 64.2,62.8 55.7,62.8 55.7,32.2 64.2,32.2 		
			"/>
	</g>
	<g transform="translate(202.5, 202.5) " class="st1">
		<polygon class="st2" points="28.2,10.1 50.3,10.1 50.3,1.6 80.9,1.6 80.9,10.1 102.5,10.1 102.5,1.6 133.1,1.6 133.1,10.1 
			155.3,10.1 155.3,32.2 163.7,32.2 163.7,62.8 155.3,62.8 155.3,84.4 163.7,84.4 163.7,106 155.3,106 155.3,127.6 163.7,127.6 
			163.7,149.2 155.3,149.2 155.3,170.8 163.7,170.8 163.7,192.4 155.3,192.4 155.3,214 163.7,214 163.7,235.6 155.3,235.6 
			155.3,257.2 163.7,257.2 163.7,278.8 155.3,278.8 155.3,300.4 163.7,300.4 163.7,322 155.3,322 155.3,343.6 163.7,343.6 
			163.7,365.2 155.3,365.2 155.3,386.8 163.7,386.8 163.7,408.4 155.3,408.4 155.3,430 163.7,430 163.7,451.6 155.3,451.6 
			155.3,473.2 163.7,473.2 163.7,494.8 155.3,494.8 155.3,516.4 163.7,516.4 163.7,547 155.3,547 155.3,569.1 133.1,569.1 
			133.1,577.6 102.5,577.6 102.5,569.1 80.9,569.1 80.9,577.6 50.3,577.6 50.3,569.1 28.2,569.1 28.2,547 19.7,547 19.7,516.4 
			28.2,516.4 28.2,494.8 19.7,494.8 19.7,473.2 28.2,473.2 28.2,451.6 19.7,451.6 19.7,430 28.2,430 28.2,408.4 19.7,408.4 
			19.7,386.8 28.2,386.8 28.2,365.2 19.7,365.2 19.7,343.6 28.2,343.6 28.2,322 19.7,322 19.7,300.4 28.2,300.4 28.2,278.8 
			19.7,278.8 19.7,257.2 28.2,257.2 28.2,235.6 19.7,235.6 19.7,214 28.2,214 28.2,192.4 19.7,192.4 19.7,170.8 28.2,170.8 
			28.2,149.2 19.7,149.2 19.7,127.6 28.2,127.6 28.2,106 19.7,106 19.7,84.4 28.2,84.4 28.2,62.8 19.7,62.8 19.7,32.2 28.2,32.2 		
			"/>
	</g>
</g>
<g id="Layer_2">
	
		<image style="overflow:visible;" width="2419" height="437" xlink:href="Checkin_box/comotion-logo-purple.png"  transform="matrix(0.24 0 0 0.24 636.9832 472.4427)">
	</image>
</g>
</svg>
